<svg xmlns="http://www.w3.org/2000/svg" width="600" height="250" viewBox="0 0 600 250"><rect x="0" y="0" width="600" height="250" fill="#ffffff"/><g transform="translate(234.22831547012342,98.35225984721369)translate(155.58928863401752,39.734375)rotate(0)translate(-155.58928863401752,-39.734375)" opacity="1"><path transform="translate(6,35.560819925551954)rotate(0)" d="M27.54-13.51L27.54-36.45L36.39-36.45L36.39 0L27.54 0L12.74-22.93L12.74 0L3.88 0L3.88-36.45L12.74-36.45L27.54-13.51ZM49.65-32.15L49.65-32.15L49.65-32.15Q48.15-30.65 45.97-30.65L45.97-30.65L45.97-30.65Q43.80-30.65 42.30-32.15L42.30-32.15L42.30-32.15Q40.79-33.65 40.79-35.85L40.79-35.85L40.79-35.85Q40.79-38.05 42.30-39.55L42.30-39.55L42.30-39.55Q43.80-41.05 45.97-41.05L45.97-41.05L45.97-41.05Q48.15-41.05 49.65-39.55L49.65-39.55L49.65-39.55Q51.15-38.05 51.15-35.85L51.15-35.85L51.15-35.85Q51.15-33.65 49.65-32.15ZM50.42 0L41.57 0L41.57-28.89L50.42-28.89L50.42 0ZM53.63-20.19L53.63-20.19L53.63-20.19Q53.63-24.02 56.90-26.61L56.90-26.61L56.90-26.61Q60.16-29.20 65.72-29.20L65.72-29.20L65.72-29.20Q71.29-29.20 74.70-26.66L74.70-26.66L74.70-26.66Q78.12-24.12 78.33-19.72L78.33-19.72L69.27-19.72L69.27-19.72Q69.11-21.23 68.23-21.77L68.23-21.77L68.23-21.77Q67.35-22.31 65.59-22.31L65.59-22.31L65.59-22.31Q62.12-22.31 62.12-20.19L62.12-20.19L62.12-20.19Q62.12-18.27 66.37-17.55L66.37-17.55L66.37-17.55Q70.67-16.83 74.19-15.32L74.19-15.32L74.19-15.32Q76.00-14.60 77.22-12.92L77.22-12.92L77.22-12.92Q78.43-11.23 78.43-8.80L78.43-8.80L78.43-8.80Q78.43-4.76 74.96-2.20L74.96-2.20L74.96-2.20Q71.49 0.36 66.21 0.36L66.21 0.36L66.21 0.36Q60.93 0.36 57.41-2.04L57.41-2.04L57.41-2.04Q53.89-4.45 53.58-9.16L53.58-9.16L62.64-9.16L62.64-9.16Q63.00-6.52 66.37-6.52L66.37-6.52L66.37-6.52Q67.92-6.52 68.93-7.25L68.93-7.25L68.93-7.25Q69.94-7.97 69.94-9.11L69.94-9.11L69.94-9.11Q69.94-10.25 68.26-10.92L68.26-10.92L68.26-10.92Q66.58-11.60 64.20-12.06L64.20-12.06L64.20-12.06Q61.81-12.53 59.41-13.23L59.41-13.23L59.41-13.23Q57.00-13.93 55.32-15.66L55.32-15.66L55.32-15.66Q53.63-17.39 53.63-20.19ZM94.01 0.36L94.01 0.36L94.01 0.36Q87.70 0.36 83.66-3.70L83.66-3.70L83.66-3.70Q79.62-7.77 79.62-14.50L79.62-14.50L79.62-14.50Q79.62-21.23 83.63-25.21L83.63-25.21L83.63-25.21Q87.65-29.20 94.01-29.20L94.01-29.20L94.01-29.20Q100.38-29.20 104.58-25.26L104.58-25.26L104.58-25.26Q108.77-21.33 108.77-14.34L108.77-14.34L108.77-14.34Q108.77-12.84 108.56-11.54L108.56-11.54L88.68-11.54L88.68-11.54Q88.94-9.63 90.39-8.41L90.39-8.41L90.39-8.41Q91.84-7.20 93.52-7.20L93.52-7.20L93.52-7.20Q95.21-7.20 96.03-7.53L96.03-7.53L96.03-7.53Q96.86-7.87 97.25-8.21L97.25-8.21L97.25-8.21Q97.64-8.54 98.26-9.32L98.26-9.32L107.84-9.32L107.84-9.32Q106.59-4.97 102.87-2.30L102.87-2.30L102.87-2.30Q99.14 0.36 94.01 0.36ZM99.55-17.08L99.55-17.08Q99.35-19.10 97.79-20.37L97.79-20.37L97.79-20.37Q96.24-21.64 94.12-21.64L94.12-21.64L94.12-21.64Q92.00-21.64 90.55-20.37L90.55-20.37L90.55-20.37Q89.10-19.10 88.73-17.08L88.73-17.08L99.55-17.08ZM124.82 0L124.82-36.34L133.67-36.34L133.67-6.73L144.70-6.73L144.70 0L124.82 0ZM159.30 0.36L159.30 0.36L159.30 0.36Q152.98 0.36 148.94-3.70L148.94-3.70L148.94-3.70Q144.90-7.77 144.90-14.50L144.90-14.50L144.90-14.50Q144.90-21.23 148.92-25.21L148.92-25.21L148.92-25.21Q152.93-29.20 159.30-29.20L159.30-29.20L159.30-29.20Q165.66-29.20 169.86-25.26L169.86-25.26L169.86-25.26Q174.05-21.33 174.05-14.34L174.05-14.34L174.05-14.34Q174.05-12.84 173.84-11.54L173.84-11.54L153.96-11.54L153.96-11.54Q154.22-9.63 155.67-8.41L155.67-8.41L155.67-8.41Q157.12-7.20 158.81-7.20L158.81-7.20L158.81-7.20Q160.49-7.20 161.32-7.53L161.32-7.53L161.32-7.53Q162.14-7.87 162.53-8.21L162.53-8.21L162.53-8.21Q162.92-8.54 163.54-9.32L163.54-9.32L173.12-9.32L173.12-9.32Q171.88-4.97 168.15-2.30L168.15-2.30L168.15-2.30Q164.42 0.36 159.30 0.36ZM164.84-17.08L164.84-17.08Q164.63-19.10 163.08-20.37L163.08-20.37L163.08-20.37Q161.52-21.64 159.40-21.64L159.40-21.64L159.40-21.64Q157.28-21.64 155.83-20.37L155.83-20.37L155.83-20.37Q154.38-19.10 154.02-17.08L154.02-17.08L164.84-17.08ZM185.23-32.15L185.23-32.15L185.23-32.15Q183.73-30.65 181.56-30.65L181.56-30.65L181.56-30.65Q179.38-30.65 177.88-32.15L177.88-32.15L177.88-32.15Q176.38-33.65 176.38-35.85L176.38-35.85L176.38-35.85Q176.38-38.05 177.88-39.55L177.88-39.55L177.88-39.55Q179.38-41.05 181.56-41.05L181.56-41.05L181.56-41.05Q183.73-41.05 185.23-39.55L185.23-39.55L185.23-39.55Q186.74-38.05 186.74-35.85L186.74-35.85L186.74-35.85Q186.74-33.65 185.23-32.15ZM186.01 0L177.16 0L177.16-28.89L186.01-28.89L186.01 0ZM189.22-20.19L189.22-20.19L189.22-20.19Q189.22-24.02 192.48-26.61L192.48-26.61L192.48-26.61Q195.74-29.20 201.31-29.20L201.31-29.20L201.31-29.20Q206.87-29.20 210.29-26.66L210.29-26.66L210.29-26.66Q213.71-24.12 213.91-19.72L213.91-19.72L204.85-19.72L204.85-19.72Q204.70-21.23 203.82-21.77L203.82-21.77L203.82-21.77Q202.94-22.31 201.18-22.31L201.18-22.31L201.18-22.31Q197.71-22.31 197.71-20.19L197.71-20.19L197.71-20.19Q197.71-18.27 201.96-17.55L201.96-17.55L201.96-17.55Q206.25-16.83 209.77-15.32L209.77-15.32L209.77-15.32Q211.59-14.60 212.80-12.92L212.80-12.92L212.80-12.92Q214.02-11.23 214.02-8.80L214.02-8.80L214.02-8.80Q214.02-4.76 210.55-2.20L210.55-2.20L210.55-2.20Q207.08 0.36 201.80 0.36L201.80 0.36L201.80 0.36Q196.52 0.36 193.00-2.04L193.00-2.04L193.00-2.04Q189.48-4.45 189.17-9.16L189.17-9.16L198.23-9.16L198.23-9.16Q198.59-6.52 201.96-6.52L201.96-6.52L201.96-6.52Q203.51-6.52 204.52-7.25L204.52-7.25L204.52-7.25Q205.53-7.97 205.53-9.11L205.53-9.11L205.53-9.11Q205.53-10.25 203.85-10.92L203.85-10.92L203.85-10.92Q202.16-11.60 199.78-12.06L199.78-12.06L199.78-12.06Q197.40-12.53 194.99-13.23L194.99-13.23L194.99-13.23Q192.59-13.93 190.90-15.66L190.90-15.66L190.90-15.66Q189.22-17.39 189.22-20.19ZM236.95-13.20L236.95-28.89L245.81-28.89L245.81 0L236.95 0L236.95-4.25L236.95-4.25Q234.21 0.31 228.20 0.31L228.20 0.31L228.20 0.31Q223.23 0.31 220.15-3.00L220.15-3.00L220.15-3.00Q217.07-6.32 217.07-12.01L217.07-12.01L217.07-28.89L225.87-28.89L225.87-13.20L225.87-13.20Q225.87-10.41 227.35-8.88L227.35-8.88L227.35-8.88Q228.82-7.35 231.41-7.35L231.41-7.35L231.41-7.35Q234.00-7.35 235.48-8.88L235.48-8.88L235.48-8.88Q236.95-10.41 236.95-13.20L236.95-13.20ZM250.98-28.89L259.83-28.89L259.83-23.50L259.83-23.50Q262.94-29.20 268.12-29.20L268.12-29.20L268.12-20.19L265.94-20.19L265.94-20.19Q262.89-20.19 261.36-18.74L261.36-18.74L261.36-18.74Q259.83-17.29 259.83-13.67L259.83-13.67L259.83 0L250.98 0L250.98-28.89ZM282.61 0.36L282.61 0.36L282.61 0.36Q276.30 0.36 272.26-3.70L272.26-3.70L272.26-3.70Q268.22-7.77 268.22-14.50L268.22-14.50L268.22-14.50Q268.22-21.23 272.23-25.21L272.23-25.21L272.23-25.21Q276.25-29.20 282.61-29.20L282.61-29.20L282.61-29.20Q288.98-29.20 293.17-25.26L293.17-25.26L293.17-25.26Q297.37-21.33 297.37-14.34L297.37-14.34L297.37-14.34Q297.37-12.84 297.16-11.54L297.16-11.54L277.28-11.54L277.28-11.54Q277.54-9.63 278.99-8.41L278.99-8.41L278.99-8.41Q280.44-7.20 282.12-7.20L282.12-7.20L282.12-7.20Q283.80-7.20 284.63-7.53L284.63-7.53L284.63-7.53Q285.46-7.87 285.85-8.21L285.85-8.21L285.85-8.21Q286.24-8.54 286.86-9.32L286.86-9.32L296.44-9.32L296.44-9.32Q295.19-4.97 291.47-2.30L291.47-2.30L291.47-2.30Q287.74 0.36 282.61 0.36ZM288.15-17.08L288.15-17.08Q287.95-19.10 286.39-20.37L286.39-20.37L286.39-20.37Q284.84-21.64 282.72-21.64L282.72-21.64L282.72-21.64Q280.59-21.64 279.15-20.37L279.15-20.37L279.15-20.37Q277.70-19.10 277.33-17.08L277.33-17.08L288.15-17.08Z" fill="#313c8b"/></g><g transform="translate(236.84653003804007,145.6312664700836)translate(154.15493774414065,16)rotate(0)translate(-154.15493774414065,-16)" opacity="1"><path transform="translate(6,13.991000000000001)rotate(0)" d="M9.01-4.75L9.01 0L5.42 0L5.42-4.75L0.32-14.74L4.39-14.74L7.22-8.09L10.04-14.74L14.11-14.74L9.01-4.75ZM25.53-4.33L25.53-4.33L25.53-4.33Q26.59-5.48 26.59-7.41L26.59-7.41L26.59-7.41Q26.59-9.35 25.53-10.50L25.53-10.50L25.53-10.50Q24.47-11.66 22.69-11.66L22.69-11.66L22.69-11.66Q20.92-11.66 19.86-10.50L19.86-10.50L19.86-10.50Q18.80-9.35 18.80-7.41L18.80-7.41L18.80-7.41Q18.80-5.48 19.86-4.33L19.86-4.33L19.86-4.33Q20.92-3.17 22.69-3.17L22.69-3.17L22.69-3.17Q24.47-3.17 25.53-4.33ZM17.34-2.00L17.34-2.00L17.34-2.00Q15.14-4.14 15.14-7.41L15.14-7.41L15.14-7.41Q15.14-10.69 17.34-12.82L17.34-12.82L17.34-12.82Q19.53-14.95 22.71-14.95L22.71-14.95L22.71-14.95Q25.89-14.95 28.07-12.82L28.07-12.82L28.07-12.82Q30.24-10.69 30.24-7.41L30.24-7.41L30.24-7.41Q30.24-4.14 28.06-2.00L28.06-2.00L28.06-2.00Q25.87 0.15 22.70 0.15L22.70 0.15L22.70 0.15Q19.53 0.15 17.34-2.00ZM32.49-5.94L32.49-5.94L32.49-14.74L36.08-14.74L36.08-5.94L36.08-5.94Q36.08-4.62 36.73-3.91L36.73-3.91L36.73-3.91Q37.38-3.19 38.64-3.19L38.64-3.19L38.64-3.19Q39.90-3.19 40.57-3.91L40.57-3.91L40.57-3.91Q41.24-4.62 41.24-5.94L41.24-5.94L41.24-14.74L44.84-14.74L44.84-5.94L44.84-5.94Q44.84-3.99 43.92-2.57L43.92-2.57L43.92-2.57Q43.01-1.16 41.61-0.50L41.61-0.50L41.61-0.50Q40.22 0.15 38.58 0.15L38.58 0.15L38.58 0.15Q36.02 0.15 34.25-1.45L34.25-1.45L34.25-1.45Q32.49-3.05 32.49-5.94ZM51.91-5.73L51.49-5.73L51.49 0L47.90 0L47.90-14.74L53.72-14.74L53.72-14.74Q56.28-14.74 57.71-13.42L57.71-13.42L57.71-13.42Q59.14-12.10 59.14-10.23L59.14-10.23L59.14-10.23Q59.14-8.95 58.36-7.73L58.36-7.73L58.36-7.73Q57.58-6.51 55.82-6.01L55.82-6.01L59.43 0L55.23 0L51.91-5.73ZM53.72-12.01L51.49-12.01L51.49-8.46L53.72-8.46L53.72-8.46Q54.54-8.46 55.01-8.95L55.01-8.95L55.01-8.95Q55.48-9.43 55.48-10.22L55.48-10.22L55.48-10.22Q55.48-11.00 55.00-11.51L55.00-11.51L55.00-11.51Q54.52-12.01 53.72-12.01L53.72-12.01ZM69.56-2.01L69.56-2.01L69.56-2.01Q67.37-4.14 67.37-7.41L67.37-7.41L67.37-7.41Q67.37-10.69 69.56-12.82L69.56-12.82L69.56-12.82Q71.76-14.95 74.93-14.95L74.93-14.95L74.93-14.95Q77.38-14.95 79.30-13.65L79.30-13.65L79.30-13.65Q81.21-12.35 81.96-10.04L81.96-10.04L77.68-10.04L77.68-10.04Q76.84-11.66 74.99-11.66L74.99-11.66L74.99-11.66Q73.14-11.66 72.08-10.50L72.08-10.50L72.08-10.50Q71.02-9.35 71.02-7.41L71.02-7.41L71.02-7.41Q71.02-5.48 72.08-4.33L72.08-4.33L72.08-4.33Q73.14-3.17 74.99-3.17L74.99-3.17L74.99-3.17Q76.84-3.17 77.68-4.79L77.68-4.79L81.96-4.79L81.96-4.79Q81.21-2.48 79.30-1.18L79.30-1.18L79.30-1.18Q77.38 0.13 74.93 0.13L74.93 0.13L74.93 0.13Q71.76 0.13 69.56-2.01ZM93.80-4.33L93.80-4.33L93.80-4.33Q94.86-5.48 94.86-7.41L94.86-7.41L94.86-7.41Q94.86-9.35 93.80-10.50L93.80-10.50L93.80-10.50Q92.74-11.66 90.96-11.66L90.96-11.66L90.96-11.66Q89.19-11.66 88.13-10.50L88.13-10.50L88.13-10.50Q87.07-9.35 87.07-7.41L87.07-7.41L87.07-7.41Q87.07-5.48 88.13-4.33L88.13-4.33L88.13-4.33Q89.19-3.17 90.96-3.17L90.96-3.17L90.96-3.17Q92.74-3.17 93.80-4.33ZM85.61-2.00L85.61-2.00L85.61-2.00Q83.41-4.14 83.41-7.41L83.41-7.41L83.41-7.41Q83.41-10.69 85.61-12.82L85.61-12.82L85.61-12.82Q87.80-14.95 90.98-14.95L90.98-14.95L90.98-14.95Q94.16-14.95 96.34-12.82L96.34-12.82L96.34-12.82Q98.51-10.69 98.51-7.41L98.51-7.41L98.51-7.41Q98.51-4.14 96.33-2.00L96.33-2.00L96.33-2.00Q94.14 0.15 90.97 0.15L90.97 0.15L90.97 0.15Q87.80 0.15 85.61-2.00ZM110.42-5.48L110.42-14.78L114.01-14.78L114.01 0L110.42 0L104.41-9.30L104.41 0L100.82 0L100.82-14.78L104.41-14.78L110.42-5.48ZM118.49-2.01L118.49-2.01L118.49-2.01Q116.30-4.14 116.30-7.41L116.30-7.41L116.30-7.41Q116.30-10.69 118.49-12.82L118.49-12.82L118.49-12.82Q120.69-14.95 123.86-14.95L123.86-14.95L123.86-14.95Q126.31-14.95 128.23-13.65L128.23-13.65L128.23-13.65Q130.14-12.35 130.89-10.04L130.89-10.04L126.61-10.04L126.61-10.04Q125.77-11.66 123.92-11.66L123.92-11.66L123.92-11.66Q122.07-11.66 121.01-10.50L121.01-10.50L121.01-10.50Q119.95-9.35 119.95-7.41L119.95-7.41L119.95-7.41Q119.95-5.48 121.01-4.33L121.01-4.33L121.01-4.33Q122.07-3.17 123.92-3.17L123.92-3.17L123.92-3.17Q125.77-3.17 126.61-4.79L126.61-4.79L130.89-4.79L130.89-4.79Q130.14-2.48 128.23-1.18L128.23-1.18L128.23-1.18Q126.31 0.13 123.86 0.13L123.86 0.13L123.86 0.13Q120.69 0.13 118.49-2.01ZM136.79 0L133.20 0L133.20-14.74L136.79-14.74L136.79 0ZM139.94-14.78L148.87-14.78L148.87-12.05L143.54-12.05L143.54-8.88L148.24-8.88L148.24-6.15L143.54-6.15L143.54-2.73L148.87-2.73L148.87 0L139.94 0L139.94-14.78ZM155.97-5.73L155.55-5.73L155.55 0L151.96 0L151.96-14.74L157.77-14.74L157.77-14.74Q160.34-14.74 161.76-13.42L161.76-13.42L161.76-13.42Q163.19-12.10 163.19-10.23L163.19-10.23L163.19-10.23Q163.19-8.95 162.41-7.73L162.41-7.73L162.41-7.73Q161.64-6.51 159.87-6.01L159.87-6.01L163.49 0L159.29 0L155.97-5.73ZM157.77-12.01L155.55-12.01L155.55-8.46L157.77-8.46L157.77-8.46Q158.59-8.46 159.06-8.95L159.06-8.95L159.06-8.95Q159.54-9.43 159.54-10.22L159.54-10.22L159.54-10.22Q159.54-11.00 159.05-11.51L159.05-11.51L159.05-11.51Q158.57-12.01 157.77-12.01L157.77-12.01ZM167.32-2.01L167.32-2.01L167.32-2.01Q165.12-4.14 165.12-7.41L165.12-7.41L165.12-7.41Q165.12-10.69 167.32-12.82L167.32-12.82L167.32-12.82Q169.51-14.95 172.68-14.95L172.68-14.95L172.68-14.95Q175.14-14.95 177.05-13.65L177.05-13.65L177.05-13.65Q178.96-12.35 179.72-10.04L179.72-10.04L175.43-10.04L175.43-10.04Q174.59-11.66 172.75-11.66L172.75-11.66L172.75-11.66Q170.90-11.66 169.84-10.50L169.84-10.50L169.84-10.50Q168.78-9.35 168.78-7.41L168.78-7.41L168.78-7.41Q168.78-5.48 169.84-4.33L169.84-4.33L169.84-4.33Q170.90-3.17 172.68-3.17L172.68-3.17L172.68-3.17Q173.96-3.17 174.77-3.81L174.77-3.81L174.77-3.81Q175.58-4.45 175.85-5.52L175.85-5.52L171.70-5.52L171.70-8.25L179.72-8.25L179.72-5.52L179.72-5.52Q179.32-3.51 177.51-1.76L177.51-1.76L177.51-1.76Q176.65-0.92 175.38-0.40L175.38-0.40L175.38-0.40Q174.11 0.13 172.68 0.13L172.68 0.13L172.68 0.13Q169.51 0.13 167.32-2.01ZM182.03-14.78L190.95-14.78L190.95-12.05L185.62-12.05L185.62-8.88L190.32-8.88L190.32-6.15L185.62-6.15L185.62-2.73L190.95-2.73L190.95 0L182.03 0L182.03-14.78ZM211.58-10.23L211.58-10.23L211.58-10.23Q211.58-8.74 210.50-7.35L210.50-7.35L210.50-7.35Q209.94-6.64 208.81-6.18L208.81-6.18L208.81-6.18Q207.69-5.73 206.16-5.73L206.16-5.73L203.93-5.73L203.93 0L200.34 0L200.34-14.74L206.16-14.74L206.16-14.74Q208.72-14.74 210.15-13.42L210.15-13.42L210.15-13.42Q211.58-12.10 211.58-10.23ZM203.93-12.01L203.93-8.46L206.16-8.46L206.16-8.46Q206.98-8.46 207.45-8.95L207.45-8.95L207.45-8.95Q207.92-9.43 207.92-10.22L207.92-10.22L207.92-10.22Q207.92-11.00 207.44-11.51L207.44-11.51L207.44-11.51Q206.96-12.01 206.16-12.01L206.16-12.01L203.93-12.01ZM226.95 0L223.10 0L222.29-2.48L216.99-2.48L216.17 0L212.35 0L217.48-14.78L221.84-14.78L226.95 0ZM219.64-10.46L217.90-5.21L221.38-5.21L219.64-10.46ZM232.72-5.73L232.30-5.73L232.30 0L228.71 0L228.71-14.74L234.53-14.74L234.53-14.74Q237.09-14.74 238.52-13.42L238.52-13.42L238.52-13.42Q239.95-12.10 239.95-10.23L239.95-10.23L239.95-10.23Q239.95-8.95 239.17-7.73L239.17-7.73L239.17-7.73Q238.39-6.51 236.63-6.01L236.63-6.01L240.24 0L236.04 0L232.72-5.73ZM234.53-12.01L232.30-12.01L232.30-8.46L234.53-8.46L234.53-8.46Q235.35-8.46 235.82-8.95L235.82-8.95L235.82-8.95Q236.29-9.43 236.29-10.22L236.29-10.22L236.29-10.22Q236.29-11.00 235.81-11.51L235.81-11.51L235.81-11.51Q235.33-12.01 234.53-12.01L234.53-12.01ZM245.74-12.01L241.73-12.01L241.73-14.74L253.37-14.74L253.37-12.01L249.33-12.01L249.33 0L245.74 0L245.74-12.01ZM265.10-5.48L265.10-14.78L268.70-14.78L268.70 0L265.10 0L259.10-9.30L259.10 0L255.51 0L255.51-14.78L259.10-14.78L265.10-5.48ZM271.85-14.78L280.77-14.78L280.77-12.05L275.44-12.05L275.44-8.88L280.14-8.88L280.14-6.15L275.44-6.15L275.44-2.73L280.77-2.73L280.77 0L271.85 0L271.85-14.78ZM287.87-5.73L287.45-5.73L287.45 0L283.86 0L283.86-14.74L289.67-14.74L289.67-14.74Q292.24-14.74 293.66-13.42L293.66-13.42L293.66-13.42Q295.09-12.10 295.09-10.23L295.09-10.23L295.09-10.23Q295.09-8.95 294.32-7.73L294.32-7.73L294.32-7.73Q293.54-6.51 291.77-6.01L291.77-6.01L295.39 0L291.19 0L287.87-5.73ZM289.67-12.01L287.45-12.01L287.45-8.46L289.67-8.46L289.67-8.46Q290.49-8.46 290.97-8.95L290.97-8.95L290.97-8.95Q291.44-9.43 291.44-10.22L291.44-10.22L291.44-10.22Q291.44-11.00 290.96-11.51L290.96-11.51L290.96-11.51Q290.47-12.01 289.67-12.01L289.67-12.01Z" fill="#313c8b"/></g><g transform="translate(218.69384978074237,29.123793193624437)translate(-53.74376623885388,96.11865885025794)rotate(0)translate(53.74376623885388,-96.11865885025794) scale(-1.038286121843319,1.038286121843319)" opacity="1"><defs class="defs"><linearGradient id="linearGradientc32b940fb9da198eafff574f1ce7121f" class="linearGradient1" gradientTransform="translate(0.5,0.5) rotate(270) translate(-0.5,-0.5)" x1="50%" y1="0%" x2="50%" y2="100%"><stop id="stop1" offset="21.428571428571427%" class="linearGradientColor1" stop-color="#f9ff55"/><stop id="stop2" offset="100%" class="linearGradientColor2" stop-color="#fe3d33"/></linearGradient></defs><g>
    <path fill="url(#linearGradientc32b940fb9da198eafff574f1ce7121f)" d="M2.233,49.322c3.526-7.173,8.118-13.946,13.739-20.097c0.44-0.593,0.923-1.171,1.461-1.726&#10;&#9;&#9;c4.59-4.738,9.776-9.011,15.495-12.713c8.384-5.517,17.459-9.501,26.839-11.974c0.656-0.173,1.308-0.302,1.954-0.396&#10;&#9;&#9;c0.604-0.088,1.207-0.179,1.803-0.308c7.891-1.711,15.846-2.362,23.679-2.019c13.82,0.605,21.221,15.991,12.676,26.478&#10;&#9;&#9;l-0.007,0.008c-3.404,4.177-8.698,6.436-14.203,6.201c-7.736-0.33-15.662,0.878-23.314,3.83c-3.759,1.45-7.257,3.257-10.488,5.348&#10;&#9;&#9;c-0.568,0.376-1.136,0.751-1.693,1.149c-0.041,0.029-0.082,0.058-0.123,0.087c-0.804,0.579-1.598,1.18-2.378,1.806&#10;&#9;&#9;c-6.548,5.254-11.544,11.642-14.942,18.623c-2.86,5.876-9.011,9.729-16.001,9.474C2.741,72.582-3.766,61.526,2.233,49.322z&#10;&#9;&#9; M2.592,134.401c3.333,7.265,7.741,14.158,13.196,20.457c0.424,0.604,0.891,1.195,1.414,1.765&#10;&#9;&#9;c4.462,4.859,9.531,9.269,15.15,13.123c8.234,5.739,17.199,9.965,26.509,12.688c0.651,0.19,1.299,0.337,1.943,0.449&#10;&#9;&#9;c0.601,0.104,1.202,0.211,1.794,0.356c7.842,1.921,15.777,2.785,23.617,2.652c13.831-0.235,21.642-15.418,13.381-26.13&#10;&#9;&#9;l-0.006-0.008c-3.291-4.267-8.523-6.667-14.032-6.579c-7.742,0.123-15.633-1.297-23.203-4.452c-3.719-1.55-7.167-3.45-10.341-5.627&#10;&#9;&#9;c-0.558-0.391-1.116-0.781-1.662-1.194c-0.04-0.03-0.081-0.06-0.121-0.09c-0.789-0.6-1.566-1.222-2.329-1.869&#10;&#9;&#9;c-6.405-5.428-11.228-11.947-14.438-19.017c-2.702-5.951-8.748-9.966-15.742-9.898C3.722,111.163-3.078,122.041,2.592,134.401z" class="color c1"/>
  </g></g><g transform="translate(234.16504135499628,29.70747822571403)translate(-47.50591865860677,95.0118373172136)rotate(0)translate(47.50591865860677,-95.0118373172136) scale(-1.028823360229708,1.028823360229708)" opacity="1"><defs class="defs"><linearGradient id="linearGradient412e90654eb27013f4c9532bead1a2a4" class="linearGradient1" gradientTransform="translate(0.5,0.5) rotate(270) translate(-0.5,-0.5)" x1="50%" y1="0%" x2="50%" y2="100%"><stop id="stop1" offset="0%" class="linearGradientColor1" stop-color="#f9ff55"/><stop id="stop2" offset="82.85714285714286%" class="linearGradientColor2" stop-color="#fe3d33"/></linearGradient></defs><path fill="url(#linearGradient412e90654eb27013f4c9532bead1a2a4)" d="M0,92.221C0,92.221,0,92.221,0,92.221c0-0.002,0-0.003,0-0.005h0.01C1.512,41.922,42.039,1.436,92.35,0&#10;&#9;C75.142,2.901,5.832,43.53,46.602,66.318c2.436,1.362,5.051,2.371,7.715,3.203c11.618,3.631,20.614,12.243,20.654,22.695h0.031&#10;&#9;c0,0.002,0,0.003-0.001,0.005c0,0,0,0,0,0s0,0,0,0c0,0.002,0,0.003,0.001,0.005h-0.031c-0.04,10.453-9.036,19.064-20.654,22.695&#10;&#9;c-2.664,0.833-5.278,1.842-7.715,3.203c-40.769,22.788,28.54,63.417,45.748,66.318c-50.31-1.436-90.837-41.922-92.34-92.216H0&#10;&#9;C0,92.225,0,92.223,0,92.221C0,92.222,0,92.221,0,92.221z" class="color c1"/></g><g transform="translate(46.265408554212144,29.116414383404262)translate(53.74376623885388,96.11865885025794)rotate(0)translate(-53.74376623885388,-96.11865885025794) scale(1.038286121843319,1.038286121843319)" opacity="1"><defs class="defs"><linearGradient id="linearGradient90d12c65329ad24c259b0b900de4383b" class="linearGradient1" gradientTransform="translate(0.5,0.5) rotate(270) translate(-0.5,-0.5)" x1="50%" y1="0%" x2="50%" y2="100%"><stop id="stop1" offset="21.428571428571427%" class="linearGradientColor1" stop-color="#00fffe"/><stop id="stop2" offset="100%" class="linearGradientColor2" stop-color="#045cdc"/></linearGradient></defs><g>
    <path fill="url(#linearGradient90d12c65329ad24c259b0b900de4383b)" d="M2.233,49.322c3.526-7.173,8.118-13.946,13.739-20.097c0.44-0.593,0.923-1.171,1.461-1.726&#10;&#9;&#9;c4.59-4.738,9.776-9.011,15.495-12.713c8.384-5.517,17.459-9.501,26.839-11.974c0.656-0.173,1.308-0.302,1.954-0.396&#10;&#9;&#9;c0.604-0.088,1.207-0.179,1.803-0.308c7.891-1.711,15.846-2.362,23.679-2.019c13.82,0.605,21.221,15.991,12.676,26.478&#10;&#9;&#9;l-0.007,0.008c-3.404,4.177-8.698,6.436-14.203,6.201c-7.736-0.33-15.662,0.878-23.314,3.83c-3.759,1.45-7.257,3.257-10.488,5.348&#10;&#9;&#9;c-0.568,0.376-1.136,0.751-1.693,1.149c-0.041,0.029-0.082,0.058-0.123,0.087c-0.804,0.579-1.598,1.18-2.378,1.806&#10;&#9;&#9;c-6.548,5.254-11.544,11.642-14.942,18.623c-2.86,5.876-9.011,9.729-16.001,9.474C2.741,72.582-3.766,61.526,2.233,49.322z&#10;&#9;&#9; M2.592,134.401c3.333,7.265,7.741,14.158,13.196,20.457c0.424,0.604,0.891,1.195,1.414,1.765&#10;&#9;&#9;c4.462,4.859,9.531,9.269,15.15,13.123c8.234,5.739,17.199,9.965,26.509,12.688c0.651,0.19,1.299,0.337,1.943,0.449&#10;&#9;&#9;c0.601,0.104,1.202,0.211,1.794,0.356c7.842,1.921,15.777,2.785,23.617,2.652c13.831-0.235,21.642-15.418,13.381-26.13&#10;&#9;&#9;l-0.006-0.008c-3.291-4.267-8.523-6.667-14.032-6.579c-7.742,0.123-15.633-1.297-23.203-4.452c-3.719-1.55-7.167-3.45-10.341-5.627&#10;&#9;&#9;c-0.558-0.391-1.116-0.781-1.662-1.194c-0.04-0.03-0.081-0.06-0.121-0.09c-0.789-0.6-1.566-1.222-2.329-1.869&#10;&#9;&#9;c-6.405-5.428-11.228-11.947-14.438-19.017c-2.702-5.951-8.748-9.966-15.742-9.898C3.722,111.163-3.078,122.041,2.592,134.401z" class="color c1"/>
  </g></g><g transform="translate(32.890958055303955,29.700099415493426)translate(47.913541721191066,95.82708344238222)rotate(0)translate(-47.913541721191066,-95.82708344238222) scale(1.0376511471833474,1.0376511471833474)" opacity="1"><defs class="defs"><linearGradient id="linearGradient8a0ae7af306a0f98091d7f6fa3e1a7ec" class="linearGradient1" gradientTransform="translate(0.5,0.5) rotate(270) translate(-0.5,-0.5)" x1="50%" y1="0%" x2="50%" y2="100%"><stop id="stop1" offset="0%" class="linearGradientColor1" stop-color="#00fffe"/><stop id="stop2" offset="100%" class="linearGradientColor2" stop-color="#045cdc"/></linearGradient></defs><path fill="url(#linearGradient8a0ae7af306a0f98091d7f6fa3e1a7ec)" d="M0,92.221C0,92.221,0,92.221,0,92.221c0-0.002,0-0.003,0-0.005h0.01C1.512,41.922,42.039,1.436,92.35,0&#10;&#9;C75.142,2.901,5.832,43.53,46.602,66.318c2.436,1.362,5.051,2.371,7.715,3.203c11.618,3.631,20.614,12.243,20.654,22.695h0.031&#10;&#9;c0,0.002,0,0.003-0.001,0.005c0,0,0,0,0,0s0,0,0,0c0,0.002,0,0.003,0.001,0.005h-0.031c-0.04,10.453-9.036,19.064-20.654,22.695&#10;&#9;c-2.664,0.833-5.278,1.842-7.715,3.203c-40.769,22.788,28.54,63.417,45.748,66.318c-50.31-1.436-90.837-41.922-92.34-92.216H0&#10;&#9;C0,92.225,0,92.223,0,92.221C0,92.222,0,92.221,0,92.221z" class="color c1"/></g><g transform="translate(154.99457139508206,96.11832472737387)translate(-13.914042599495758,24.884730033713538)rotate(0)translate(13.914042599495758,-24.884730033713538) scale(-0.2688080560931911,0.2688080560931911)" opacity="1"><defs class="defs"><linearGradient id="linearGradientb65df8083e6796cfe0e49a787bcd9bc3" class="linearGradient1" gradientTransform="translate(0.5,0.5) rotate(270) translate(-0.5,-0.5)" x1="50%" y1="0%" x2="50%" y2="100%"><stop id="stop1" offset="21.428571428571427%" class="linearGradientColor1" stop-color="#f9ff55"/><stop id="stop2" offset="100%" class="linearGradientColor2" stop-color="#fe3d33"/></linearGradient></defs><g>
    <path fill="url(#linearGradientb65df8083e6796cfe0e49a787bcd9bc3)" d="M2.233,49.322c3.526-7.173,8.118-13.946,13.739-20.097c0.44-0.593,0.923-1.171,1.461-1.726&#10;&#9;&#9;c4.59-4.738,9.776-9.011,15.495-12.713c8.384-5.517,17.459-9.501,26.839-11.974c0.656-0.173,1.308-0.302,1.954-0.396&#10;&#9;&#9;c0.604-0.088,1.207-0.179,1.803-0.308c7.891-1.711,15.846-2.362,23.679-2.019c13.82,0.605,21.221,15.991,12.676,26.478&#10;&#9;&#9;l-0.007,0.008c-3.404,4.177-8.698,6.436-14.203,6.201c-7.736-0.33-15.662,0.878-23.314,3.83c-3.759,1.45-7.257,3.257-10.488,5.348&#10;&#9;&#9;c-0.568,0.376-1.136,0.751-1.693,1.149c-0.041,0.029-0.082,0.058-0.123,0.087c-0.804,0.579-1.598,1.18-2.378,1.806&#10;&#9;&#9;c-6.548,5.254-11.544,11.642-14.942,18.623c-2.86,5.876-9.011,9.729-16.001,9.474C2.741,72.582-3.766,61.526,2.233,49.322z&#10;&#9;&#9; M2.592,134.401c3.333,7.265,7.741,14.158,13.196,20.457c0.424,0.604,0.891,1.195,1.414,1.765&#10;&#9;&#9;c4.462,4.859,9.531,9.269,15.15,13.123c8.234,5.739,17.199,9.965,26.509,12.688c0.651,0.19,1.299,0.337,1.943,0.449&#10;&#9;&#9;c0.601,0.104,1.202,0.211,1.794,0.356c7.842,1.921,15.777,2.785,23.617,2.652c13.831-0.235,21.642-15.418,13.381-26.13&#10;&#9;&#9;l-0.006-0.008c-3.291-4.267-8.523-6.667-14.032-6.579c-7.742,0.123-15.633-1.297-23.203-4.452c-3.719-1.55-7.167-3.45-10.341-5.627&#10;&#9;&#9;c-0.558-0.391-1.116-0.781-1.662-1.194c-0.04-0.03-0.081-0.06-0.121-0.09c-0.789-0.6-1.566-1.222-2.329-1.869&#10;&#9;&#9;c-6.405-5.428-11.228-11.947-14.438-19.017c-2.702-5.951-8.748-9.966-15.742-9.898C3.722,111.163-3.078,122.041,2.592,134.401z" class="color c1"/>
  </g></g><g transform="translate(159.00000000000014,96.26943840937912)translate(-12.299089219135698,24.598178438271354)rotate(0)translate(12.299089219135698,-24.598178438271354) scale(-0.26635818557954954,0.26635818557954954)" opacity="1"><defs class="defs"><linearGradient id="linearGradient0c4978ec5f2fd178fff83a4c14d002af" class="linearGradient1" gradientTransform="translate(0.5,0.5) rotate(270) translate(-0.5,-0.5)" x1="50%" y1="0%" x2="50%" y2="100%"><stop id="stop1" offset="0%" class="linearGradientColor1" stop-color="#f9ff55"/><stop id="stop2" offset="82.85714285714286%" class="linearGradientColor2" stop-color="#fe3d33"/></linearGradient></defs><path fill="url(#linearGradient0c4978ec5f2fd178fff83a4c14d002af)" d="M0,92.221C0,92.221,0,92.221,0,92.221c0-0.002,0-0.003,0-0.005h0.01C1.512,41.922,42.039,1.436,92.35,0&#10;&#9;C75.142,2.901,5.832,43.53,46.602,66.318c2.436,1.362,5.051,2.371,7.715,3.203c11.618,3.631,20.614,12.243,20.654,22.695h0.031&#10;&#9;c0,0.002,0,0.003-0.001,0.005c0,0,0,0,0,0s0,0,0,0c0,0.002,0,0.003,0.001,0.005h-0.031c-0.04,10.453-9.036,19.064-20.654,22.695&#10;&#9;c-2.664,0.833-5.278,1.842-7.715,3.203c-40.769,22.788,28.54,63.417,45.748,66.318c-50.31-1.436-90.837-41.922-92.34-92.216H0&#10;&#9;C0,92.225,0,92.223,0,92.221C0,92.222,0,92.221,0,92.221z" class="color c1"/></g><g transform="translate(237.0915032679739,-78.08126870701007)translate(222.52941176476227,149.81774534182793)rotate(0)translate(-222.52941176476227,-149.81774534182793) scale(4.544306099822513,4.544306099822513)" opacity="0.12"><defs class="defs"><linearGradient id="linearGradientc4514488c5fe678935808341b94e08ef" class="linearGradient1" gradientTransform="translate(0.5,0.5) rotate(270) translate(-0.5,-0.5)" x1="50%" y1="0%" x2="50%" y2="100%"><stop id="stop1" offset="0%" class="linearGradientColor1" stop-color="#d55959"/><stop id="stop2" offset="100%" class="linearGradientColor2" stop-color="#00924C"/></linearGradient></defs><path transform="translate(-1.0171527895085972,-16.99153267105794)" d="M98.8,49.4c-1.7,-16.8 -14.5,-29.2 -29.6,-31.9c-0.3,-0.1 -0.6,-0.1 -0.9,-0.1c-6.6,-1 -13.5,-0.2 -20.2,2.8c-5,2.3 -9.2,5.5 -12.6,9.5c-2,2.3 -3.6,5 -5.1,7.9c-0.9,1.9 -1.6,2.3 -3.7,1.8c-1.4,-0.3 -2.8,-0.4 -4.3,-0.4c-12.4,0 -22.4,10.9 -21.3,23.3c0.4,4.7 2.3,8.9 5.3,12.3c1.5,1.5 3.2,2.8 5.1,3.7c3.9,1.8 7.7,2.5 11.8,1.7c4.5,-0.8 8.6,-2.5 12.9,-4.2c3.8,-1.6 7.3,-3.8 10.8,-6.2c0.7,-0.5 1.4,-1 2.2,-1.4c-3.2,-0.4 -7.2,-0.8 -7.2,-0.8l1.7,-1.3c0,0 3.6,0 4.7,-0.1c3.3,-0.3 5.9,-2.7 8.2,-5c1.4,-1.4 2.9,-2.8 4.3,-4.2l-19.2,-2l1.5,-1.2l21.2,-0.2c1.9,-1.8 3.7,-3.6 5.6,-5.4c0.4,-0.3 0.7,-0.7 1.1,-1c1,-0.9 2,-1.7 3.2,-2.3c1.4,-0.6 3,-0.7 4.5,-0.6c0.5,0 1,0.2 1.3,0.6c0.1,0.3 0.1,0.7 -0.1,0.9c-0.2,0.3 -0.4,0.5 -0.7,0.7c-1.4,1.3 -2.9,2.6 -4.4,3.8c-1.3,1.1 -2.6,2.1 -3.9,3.2v0c0,0 -0.2,0.1 -0.4,0.3c-2.4,2 -4.8,3.9 -7.3,5.8c-5.4,4.2 -9.3,7.1 -11.1,8.3c-5.7,4.3 -11.4,8.7 -17.8,11.9c-2.7,1.3 -5.4,2.4 -8.3,3.3c3.7,0.1 7.5,-0.1 11.3,-0.1c8.9,0 17.8,0 26.6,0c3,0 6,0.1 9,0c7.4,-0.2 14.3,-3.5 18.9,-9.3c5.4,-6.4 7.7,-15.9 6.9,-24.1z" fill="url(#linearGradientc4514488c5fe678935808341b94e08ef)" class="fill c1"/></g><g transform="translate(110.35354891950959,96.11641438340426)translate(13.914042599495758,24.884730033713538)rotate(0)translate(-13.914042599495758,-24.884730033713538) scale(0.2688080560931911,0.2688080560931911)" opacity="1"><defs class="defs"><linearGradient id="linearGradient32f288aa8dc52ac6f072a4623c06d897" class="linearGradient1" gradientTransform="translate(0.5,0.5) rotate(270) translate(-0.5,-0.5)" x1="50%" y1="0%" x2="50%" y2="100%"><stop id="stop1" offset="21.428571428571427%" class="linearGradientColor1" stop-color="#00fffe"/><stop id="stop2" offset="100%" class="linearGradientColor2" stop-color="#045cdc"/></linearGradient></defs><g>
    <path fill="url(#linearGradient32f288aa8dc52ac6f072a4623c06d897)" d="M2.233,49.322c3.526-7.173,8.118-13.946,13.739-20.097c0.44-0.593,0.923-1.171,1.461-1.726&#10;&#9;&#9;c4.59-4.738,9.776-9.011,15.495-12.713c8.384-5.517,17.459-9.501,26.839-11.974c0.656-0.173,1.308-0.302,1.954-0.396&#10;&#9;&#9;c0.604-0.088,1.207-0.179,1.803-0.308c7.891-1.711,15.846-2.362,23.679-2.019c13.82,0.605,21.221,15.991,12.676,26.478&#10;&#9;&#9;l-0.007,0.008c-3.404,4.177-8.698,6.436-14.203,6.201c-7.736-0.33-15.662,0.878-23.314,3.83c-3.759,1.45-7.257,3.257-10.488,5.348&#10;&#9;&#9;c-0.568,0.376-1.136,0.751-1.693,1.149c-0.041,0.029-0.082,0.058-0.123,0.087c-0.804,0.579-1.598,1.18-2.378,1.806&#10;&#9;&#9;c-6.548,5.254-11.544,11.642-14.942,18.623c-2.86,5.876-9.011,9.729-16.001,9.474C2.741,72.582-3.766,61.526,2.233,49.322z&#10;&#9;&#9; M2.592,134.401c3.333,7.265,7.741,14.158,13.196,20.457c0.424,0.604,0.891,1.195,1.414,1.765&#10;&#9;&#9;c4.462,4.859,9.531,9.269,15.15,13.123c8.234,5.739,17.199,9.965,26.509,12.688c0.651,0.19,1.299,0.337,1.943,0.449&#10;&#9;&#9;c0.601,0.104,1.202,0.211,1.794,0.356c7.842,1.921,15.777,2.785,23.617,2.652c13.831-0.235,21.642-15.418,13.381-26.13&#10;&#9;&#9;l-0.006-0.008c-3.291-4.267-8.523-6.667-14.032-6.579c-7.742,0.123-15.633-1.297-23.203-4.452c-3.719-1.55-7.167-3.45-10.341-5.627&#10;&#9;&#9;c-0.558-0.391-1.116-0.781-1.662-1.194c-0.04-0.03-0.081-0.06-0.121-0.09c-0.789-0.6-1.566-1.222-2.329-1.869&#10;&#9;&#9;c-6.405-5.428-11.228-11.947-14.438-19.017c-2.702-5.951-8.748-9.966-15.742-9.898C3.722,111.163-3.078,122.041,2.592,134.401z" class="color c1"/>
  </g></g><g transform="translate(106.890958055304,96.2675280654094)translate(12.40462117296506,24.8092423459301)rotate(0)translate(-12.40462117296506,-24.8092423459301) scale(0.26864366373503107,0.26864366373503107)" opacity="1"><defs class="defs"><linearGradient id="linearGradient34bdd6e203f3d938d65f6790b60a3e8e" class="linearGradient1" gradientTransform="translate(0.5,0.5) rotate(270) translate(-0.5,-0.5)" x1="50%" y1="0%" x2="50%" y2="100%"><stop id="stop1" offset="0%" class="linearGradientColor1" stop-color="#00fffe"/><stop id="stop2" offset="100%" class="linearGradientColor2" stop-color="#045cdc"/></linearGradient></defs><path fill="url(#linearGradient34bdd6e203f3d938d65f6790b60a3e8e)" d="M0,92.221C0,92.221,0,92.221,0,92.221c0-0.002,0-0.003,0-0.005h0.01C1.512,41.922,42.039,1.436,92.35,0&#10;&#9;C75.142,2.901,5.832,43.53,46.602,66.318c2.436,1.362,5.051,2.371,7.715,3.203c11.618,3.631,20.614,12.243,20.654,22.695h0.031&#10;&#9;c0,0.002,0,0.003-0.001,0.005c0,0,0,0,0,0s0,0,0,0c0,0.002,0,0.003,0.001,0.005h-0.031c-0.04,10.453-9.036,19.064-20.654,22.695&#10;&#9;c-2.664,0.833-5.278,1.842-7.715,3.203c-40.769,22.788,28.54,63.417,45.748,66.318c-50.31-1.436-90.837-41.922-92.34-92.216H0&#10;&#9;C0,92.225,0,92.223,0,92.221C0,92.222,0,92.221,0,92.221z" class="color c1"/></g></svg>